<svg version="1.2" xmlns="http://www.w3.org/2000/svg" viewBox="0 0 77 64" width="308" height="256"><style></style><path  d="m40.5 0.3c12.6 0.2 23.9 8 28.6 19.8-0.6-0.5-1.1-1.1-1.6-1.5-1.9-2.1-3.9-4.2-5.3-6.7-0.7-1.3-1.2-2.8-2.5-3.7-2.6-1.6-5.6-2.1-8.5-2.5q-2.2-0.2-4.4-0.2c-3.9-2.7-8.8-4.4-14.9-4.2q1.1-0.3 2.2-0.5 3.2-0.6 6.4-0.5zm18.1 22.9c1.5 0.5 2.7 1.5 3.5 2.8 0.5 1.5 1.6 3.1 3.3 3.4 1.9 0 3.9-0.1 5.8-0.4 0.8 8.5-2 16.7-7.2 22.9 0.2-0.7 0-1.5-0.3-2.2-0.6-2.3-1.4-4.7-3.3-6.3-1.8-1.3-3.8-2.3-5.8-3.5 3-4.8 4.3-10.6 3.4-16.4q0.3-0.2 0.6-0.3zm-49.6 14.6q0.5 0.1 1 0.1c2.2 4.4 5.6 8 9.6 10.5 1.2 1.9 3.3 3 5.5 3.5 1.2 0.4 2.5 0.3 3.8 0 2.8 0.5 5.7 0.5 8.7-0.1 4.6-0.8 8.7-3 12-5.9q1.3 0.6 2.6 1.4c1.3 0.8 2.9 1.1 4.1 2.2 0.8 1.1 1.3 2.5 2.4 3.4 1 0.9 2.5 1.3 3.7 0.8-4.4 4.5-10.1 7.7-16.7 9-17 3.1-33.3-8-36.7-24.9z"/><path  d="m35.5 6.8c-1.6 0-2.8 0.5-4.2 1.5-1.3 1-3.3 2.5-4.3 3.8-3.8 3.9-6.2 7.5-8.6 12.2-1.2 1.7-1 3.8-1.4 5.8h-4.3c-2 0.5-3.9 1.5-5.8 2.3-0.9 0.9-1.8 0.2-2.7 0.3-1.3 0.3-2.1 0.3-3 1.4-1.2 0.9-1.5 2-0.9 3 1.1 0.6 1.6-0.9 2.6-1.2 2.5-0.8 5.2-0.4 7.7-0.3 2 0.2 4.1-1.3 6-0.3 1.6 0.3 2.4 2.1 4 2.3 0.6 1.1-0.4 1.9-0.8 2.9-0.9 1.5 0 3.2 0.6 4.6 0.8 1 1 2.4 2.1 3.1 1.2 1 3.2 1.6 4.7 1.7 1.6-0.1 3-0.8 4-2 0.8-0.8 1.1-1.8 1.1-2.9 0.1-2.1-1.2-4.1-2.3-5.8 1.3 0.4 2.7 0.1 4-0.1 1.7-0.1 3.4 0 4.9 0.7 3 1 5.1 1.7 7.9 2.7 2.8 0.4 5.7 2.3 8.2 3.6 2.1 0.7 3.4 1.8 4 3.2 0.6 1.7 2.4 3 2.9 2-0.5-1.2-0.7-2.5-1.2-3.7-0.5-1.1-1.4-2.3-2.5-3-2.2-1.3-4.4-2.5-6.5-3.7-3.8-2.6-6.9-4.5-11.9-6.6-1.3-1-3.1-0.7-4.4-1.4-0.2-2.4-0.3-5.6-0.1-6.9 0.2-1.3 0.8-2.8 1.9-3.9 1-1 1.9-1.5 3.1-1.8 2.4-0.4 4.4-1.9 6.6-3.2 0.5-0.2 1-0.4 1.3-0.2 0.1 0.1 0.4 0.8 0.9 1.4 0.9 1 1.4 2 1.7 3.1 0.4 0.9 0.8 2 1.5 2.5 1.2 0.5 2-0.7 3-1.2 1-0.6 1.8-1.7 3-1.8 1.3-0.2 2.4 0.6 3.4 1.3 0.9 0.6 1.7 1.5 2.4 2.5 0.5 0.9 0.6 2.1 1.8 2.5 3-0.2 6.2-0.4 9-1.7 1.1-0.1 1-2.2-0.2-2-1.9 0.2-3.5-0.2-5-0.5-1.5-0.3-2.7-1.8-4.1-3.1-2.1-2.5-4.5-4.8-5.9-7.8-0.3-1.2-1.2-2.3-2.5-2.6-2.3-0.9-4.7-1.3-7.2-1.7 0 0-3.5 0-4.9 0.1-1.8 0.2-2 0.2-3.3 0.4-0.6 0.2-1.2 0.3-1.7 0.5-0.5 0.2-1.2 0.3-2.1 0.4-0.1 0-0.2-0.1-0.2-0.2 0-0.2 0-0.2 0.2-0.2 0.9-0.1 1.5-0.2 2-0.4 0.4-0.1 0.8-0.2 1.2-0.3-0.8-0.4-1-0.4-2.2-0.8-0.8-0.2-1.8-0.4-2.8-0.5q-0.4 0-0.7 0zm17.5 9.2q0.3 0 0.7 0.2c1 0.3 2.3 0.7 2.7 1.8 0.2 0.6-1.4 0.2-2.7-0.3-1.2-0.4-1.5-1.6-0.7-1.7z"/></svg>