<?xml version="1.0" encoding="UTF-8" standalone="no"?>
<!-- Created with Inkscape (http://www.inkscape.org/) -->

<svg
   width="184.98259mm"
   height="63.211353mm"
   viewBox="0 0 184.98259 63.211353"
   version="1.1"
   id="svg1"
   xmlns="http://www.w3.org/2000/svg"
   xmlns:svg="http://www.w3.org/2000/svg">
  <defs
     id="defs1" />
  <g
     id="g29"
     style="display:inline"
     transform="translate(-10.881068,-19.806854)">
    <g
       id="text1"
       style="font-weight:bold;font-size:19.7555px;font-family:Corbel;-inkscape-font-specification:'Corbel, Bold';fill:#000000;fill-opacity:1;stroke:#000000;stroke-width:0.379501;stroke-linecap:round;stroke-linejoin:round"
       aria-label="MOONSAULT&#10;SOFTWARE"
       transform="matrix(1.683598,0,0,1.683598,63.005014,-341.47396)">
      <path
         id="path10"
         style="color:#000000;font-size:19.7555px;font-family:Corbel;-inkscape-font-specification:'Bebas Neue';text-align:center;text-anchor:middle;display:inline;fill:#000000;fill-opacity:1;stroke:none;stroke-width:0.499999;stroke-linecap:butt;stroke-linejoin:miter;-inkscape-stroke:none"
         d="m 68.265601,158.74638 c -2.133592,0 -3.299541,1.2647 -3.299541,3.47731 v 7.26984 c 0,2.21261 1.165949,3.47679 3.299541,3.47679 2.133591,0 3.299023,-1.26418 3.299023,-3.47679 v -7.26984 c 0,-2.21261 -1.165432,-3.47731 -3.299023,-3.47731 z m 7.901843,0 c -2.133592,0 -3.299024,1.2647 -3.299024,3.47731 v 7.26984 c 0,2.21261 1.165432,3.47679 3.299024,3.47679 2.133592,0 3.29954,-1.26418 3.29954,-3.47679 v -7.26984 c 0,-2.21261 -1.165948,-3.47731 -3.29954,-3.47731 z m 16.100826,0 c -2.113836,0 -3.240112,1.26442 -3.240112,3.43752 0,1.58044 0.592684,2.70651 2.410188,4.30671 1.422395,1.2446 1.857251,1.97544 1.857251,3.12126 0,1.02728 -0.434588,1.38286 -1.126029,1.38286 -0.691442,0 -1.12603,-0.3553 -1.12603,-1.34307 v -0.94826 h -2.054655 v 0.79013 c 0,2.21261 1.06673,3.47679 3.200322,3.47679 2.133593,0 3.279386,-1.26445 3.279386,-3.51658 0,-1.71872 -0.573047,-2.82486 -2.390551,-4.42505 -1.422395,-1.24459 -1.876372,-1.97524 -1.876372,-2.98277 0,-0.94826 0.394797,-1.32395 1.086239,-1.32395 0.691441,0 1.086755,0.37546 1.086755,1.36323 v 0.71106 h 2.054655 v -0.57257 c 0,-2.21261 -1.04721,-3.47731 -3.161047,-3.47731 z m -37.772372,0.19792 v 13.82862 h 1.896526 v -10.47017 h 0.03927 l 1.580782,10.47017 h 1.81746 l 1.580265,-10.47017 h 0.03979 v 10.47017 h 2.054138 V 158.9443 H 60.40251 l -1.382862,9.89707 h -0.03927 l -1.382861,-9.89707 z m 26.433012,0 v 13.82862 h 1.935799 v -10.09499 h 0.03927 l 2.608109,10.09499 H 87.74451 V 158.9443 h -1.936316 v 8.27753 h -0.03927 l -2.114083,-8.27753 z m 17.404106,0 -2.252059,13.82862 h 2.015381 l 0.394808,-2.7063 h 2.469614 v -0.0398 l 0.39533,2.74609 h 2.17299 l -2.25206,-13.82862 z m 6.124174,0 v 10.54923 c 0,2.21261 1.10651,3.47679 3.24011,3.47679 2.13359,0 3.24011,-1.26418 3.24011,-3.47679 V 158.9443 h -2.09444 v 10.70736 c 0,0.98777 -0.41495,1.34307 -1.10639,1.34307 -0.69144,0 -1.10588,-0.3553 -1.10588,-1.34307 V 158.9443 Z m 8.02122,0 v 13.82862 h 5.74848 v -1.97559 H 114.6514 V 158.9443 Z m 4.68188,0 v 1.97508 h 2.2717 v 11.85354 h 2.17299 v -11.85354 h 2.27221 v -1.97508 z m -48.894689,1.77767 c 0.691441,0 1.126029,0.37546 1.126029,1.36323 v 7.54682 c 0,0.98778 -0.434588,1.36271 -1.126029,1.36271 -0.691443,0 -1.12603,-0.37493 -1.12603,-1.36271 v -7.54682 c 0,-0.98777 0.434587,-1.36323 1.12603,-1.36323 z m 7.901843,0 c 0.691442,0 1.126029,0.37546 1.126029,1.36323 v 7.54682 c 0,0.98778 -0.434587,1.36271 -1.126029,1.36271 -0.691442,0 -1.12603,-0.37493 -1.12603,-1.36271 v -7.54682 c 0,-0.98777 0.434588,-1.36323 1.12603,-1.36323 z m 23.528796,0.63252 h 0.03979 l 0.9679,6.83524 h -1.955953 z m -41.508577,13.32167 c -2.113837,0 -3.240113,1.26442 -3.240113,3.43752 0,1.58043 0.592685,2.70652 2.410189,4.30671 1.422395,1.2446 1.857251,1.97544 1.857251,3.12126 0,1.02729 -0.434587,1.38286 -1.126029,1.38286 -0.691442,0 -1.12603,-0.35529 -1.12603,-1.34307 v -0.94827 h -2.054655 v 0.79014 c 0,2.21261 1.06673,3.47679 3.200322,3.47679 2.133592,0 3.279386,-1.26395 3.279386,-3.51607 0,-1.71873 -0.573047,-2.82537 -2.390552,-4.42557 -1.422394,-1.24459 -1.876371,-1.97523 -1.876371,-2.98276 0,-0.94826 0.394797,-1.32395 1.086239,-1.32395 0.691442,0 1.086755,0.37545 1.086755,1.36322 v 0.71107 h 2.054655 v -0.57257 c 0,-2.21261 -1.047211,-3.47731 -3.161047,-3.47731 z m 8.37985,0 c -2.133592,0 -3.299023,1.2647 -3.299023,3.47731 v 7.26984 c 0,2.21261 1.165431,3.47679 3.299023,3.47679 2.133593,0 3.299023,-1.26418 3.299023,-3.47679 v -7.26984 c 0,-2.21261 -1.16543,-3.47731 -3.299023,-3.47731 z m 5.5547,0.19792 v 13.82861 h 2.172994 v -6.02547 h 2.805513 v -1.97559 h -2.805513 v -3.85196 h 3.576009 v -1.97559 z m 7.214546,0 v 1.97559 h 2.271696 v 11.85302 h 2.172994 v -11.85302 h 2.272213 v -1.97559 z m 8.123019,0 1.402498,13.82861 h 2.884062 l 0.988053,-9.32449 h 0.03927 l 0.988054,9.32449 h 2.706295 l 1.402498,-13.82861 h -1.876371 l -0.968417,10.62829 h -0.03927 l -1.027327,-10.62829 h -2.370398 l -1.027328,10.62829 h -0.03979 l -0.967899,-10.62829 z m 13.713892,0 -2.252576,13.82861 h 2.015376 l 0.39481,-2.70629 h 2.46962 v -0.0398 l 0.39532,2.74608 h 2.173 l -2.25206,-13.82861 z m 7.03626,0 v 13.82861 h 2.173 v -5.92677 h 0.75085 c 0.98777,0 1.36323,0.41503 1.36323,1.69912 v 2.52853 c 0,1.12606 0.0789,1.34352 0.1974,1.69912 h 2.21279 c -0.21731,-0.51364 -0.2372,-1.00727 -0.2372,-1.67896 v -2.43035 c 0,-1.56068 -0.35574,-2.588 -1.44229,-2.92385 v -0.0393 c 0.96802,-0.39511 1.42266,-1.30405 1.42266,-2.72645 v -0.84905 c 0,-2.13359 -0.96835,-3.18068 -3.22048,-3.18068 z m 8.75502,0 v 13.82861 h 5.92677 v -1.97559 h -3.75326 v -4.24728 h 2.98277 v -1.97559 h -2.98277 v -3.65456 h 3.75326 v -1.97559 z m -50.397437,1.77767 c 0.691442,0 1.126029,0.37545 1.126029,1.36322 v 7.54683 c 0,0.98777 -0.434587,1.36271 -1.126029,1.36271 -0.691441,0 -1.126029,-0.37494 -1.126029,-1.36271 v -7.54683 c 0,-0.98777 0.434588,-1.36322 1.126029,-1.36322 z m 43.815417,0.19792 h 0.98805 c 0.77047,0 1.10588,0.43436 1.10588,1.42214 v 1.0666 c 0,1.10631 -0.49383,1.46192 -1.3038,1.46192 h -0.79013 z m -7.84655,0.4346 h 0.0398 l 0.9679,6.83524 h -1.95596 z"
         transform="matrix(0.90065765,-0.15881024,0,0.90065765,-32.657422,91.107093)" />
    </g>
    <g
       id="g1"
       style="display:inline;fill:#000000;fill-opacity:1;stroke:#000000;stroke-opacity:1"
       transform="matrix(0.72525204,0,0,0.72525204,-132.88314,-185.54224)">
      <g
         id="path35-7-5-4"
         style="display:inline;fill:#000000;fill-opacity:1;stroke:#000000;stroke-opacity:1"
         transform="translate(17.840604,-9.6709617)">
        <path
           style="color:#000000;display:inline;fill:#000000;fill-opacity:1;stroke:none;stroke-width:0.937222;stroke-linecap:round;stroke-linejoin:round;stroke-dasharray:none"
           d="m 236.18162,293.21022 c 17.39098,0.30149 33.0235,11.10067 39.47082,27.27493 -0.76187,-0.63653 -1.42864,-1.41551 -2.13825,-2.08998 -2.66624,-2.86547 -5.42682,-5.71287 -7.41265,-9.13602 -0.87097,-1.85582 -1.63723,-3.92364 -3.38134,-5.15997 -3.56092,-2.13849 -7.75009,-2.83528 -11.79657,-3.4623 -1.99608,-0.18547 -4.00442,-0.25843 -6.01154,-0.23975 -5.38778,-3.72191 -12.18978,-6.08067 -20.53403,-5.75233 1.00736,-0.26885 2.02408,-0.50187 3.04819,-0.69744 2.94363,-0.54938 5.87365,-0.7871 8.75537,-0.73714 z m 25.06897,31.56778 c 1.95111,0.71527 3.73188,2.06116 4.74198,3.90365 0.74738,2.0889 2.20574,4.29988 4.5645,4.67114 2.6698,0.0156 5.37573,-0.14746 8.01746,-0.61727 1.0656,11.79613 -2.76066,23.101 -9.95021,31.69777 0.23586,-1.01708 0.0576,-2.16298 -0.35417,-3.10813 -0.83509,-3.15115 -2.03443,-6.41032 -4.56918,-8.60359 -2.51482,-1.85875 -5.30427,-3.29384 -8.01824,-4.84394 4.07629,-6.67526 5.94888,-14.65208 4.7124,-22.66529 0.26096,-0.19298 0.53294,-0.36356 0.85546,-0.43434 z m -68.41306,20.204 c 0.46245,0.0288 0.92441,0.0547 1.38632,0.07 2.96737,6.13308 7.60533,11.11646 13.19533,14.56065 1.69989,2.54049 4.61144,4.09033 7.54965,4.77467 1.72245,0.51029 3.53679,0.46811 5.25338,0.0233 3.87766,0.62774 7.91855,0.61549 11.98104,-0.13388 6.311,-1.17782 11.9612,-4.11514 16.55333,-8.17626 1.24509,0.57368 2.466,1.20453 3.65923,1.86893 1.77454,1.18089 4.00001,1.58643 5.58965,3.04897 1.07724,1.57877 1.7767,3.49827 3.34087,4.70773 1.32391,1.24797 3.42408,1.7896 5.11639,1.10687 -6.02931,6.209 -13.9643,10.68472 -23.12065,12.39359 -23.40188,4.36757 -45.91091,-10.9429 -50.50454,-34.24467 z"
           id="path7" />
      </g>
      <g
         id="path36-78-2"
         style="display:inline;fill:#000000;fill-opacity:1;stroke:#000000;stroke-width:1.00002;stroke-dasharray:none;stroke-opacity:1"
         transform="translate(17.840604,-9.6709617)">
        <path
           id="path5"
           style="color:#000000;display:inline;fill:#000000;fill-opacity:1;stroke:none;stroke-width:1.00002;stroke-linecap:round;stroke-linejoin:round;stroke-dasharray:none"
           d="m 229.3374,302.19413 c -2.25782,0.0385 -3.89036,0.7442 -5.76587,2.00606 -1.80748,1.43098 -4.57479,3.4758 -6.00851,5.32949 -5.1486,5.35121 -8.48471,10.26119 -11.76759,16.85783 -1.6446,2.32738 -1.44186,5.23349 -1.92761,7.92401 l -5.93828,0.0605 c -2.76039,0.70418 -5.41361,2.04927 -8.0635,3.1636 -1.24825,1.16678 -2.3972,0.16393 -3.75544,0.43637 -1.67564,0.31923 -2.77087,0.28175 -4.0964,1.79732 -1.57007,1.3217 -2.03511,2.86418 -1.26215,4.24219 1.54824,0.73211 2.24069,-1.2771 3.63582,-1.62878 3.39226,-1.16162 7.13473,-0.60946 10.67011,-0.47657 2.76011,0.29305 5.60928,-1.85399 8.24609,-0.39037 2.21829,0.40249 3.24316,2.85278 5.51547,3.12631 0.77113,1.53409 -0.5846,2.6962 -1.11637,4.04361 -1.30398,1.9831 -0.0532,4.37612 0.83498,6.28409 1.0156,1.358 1.39367,3.34771 2.87106,4.24848 1.7026,1.50131 4.36051,2.22418 6.4507,2.45794 2.23594,-0.25694 4.20392,-1.09284 5.60749,-2.75483 0.99331,-1.22483 1.39779,-2.5622 1.51448,-4.02811 0.0393,-2.98409 -1.68467,-5.62165 -3.28807,-8.04073 1.8615,0.56325 3.77857,0.11107 5.6443,-0.16855 2.25318,-0.0628 4.64798,0.0633 6.71901,1.06261 4.0756,1.27408 6.98896,2.27389 10.8406,3.66487 3.86329,0.58989 7.9249,3.18908 11.37578,4.96383 2.79229,0.97347 4.63802,2.45478 5.4065,4.36423 0.95546,2.37407 3.36159,4.13362 4.07122,2.79987 -0.67555,-1.6575 -0.95602,-3.39773 -1.6806,-5.07328 -0.64638,-1.49469 -1.90555,-3.25202 -3.47841,-4.15598 -3.03319,-1.74324 -5.97822,-3.38718 -8.94448,-5.13673 -5.1775,-3.55922 -9.54146,-6.12866 -16.44615,-9.07766 -1.78591,-1.36081 -4.14824,-1.01072 -6.06663,-1.98331 -0.20589,-3.25914 -0.38533,-7.61431 -0.0523,-9.45156 0.31336,-1.72874 1.12147,-3.91921 2.59307,-5.40359 1.3537,-1.36546 2.57797,-2.05629 4.24896,-2.45503 3.28172,-0.50821 6.06122,-2.56902 9.15419,-4.34389 0.72488,-0.32671 1.38295,-0.66441 1.74647,-0.35308 0.22433,0.19212 0.59753,1.14359 1.33334,1.97168 1.17113,1.318 1.87606,2.66502 2.32088,4.2882 0.44199,1.195 1.05468,2.72978 1.98911,3.4571 1.68746,0.57266 2.80805,-1.03372 4.16034,-1.74889 1.40841,-0.73276 2.56341,-2.26385 4.13514,-2.4686 1.75525,-0.18744 3.27519,0.8437 4.65871,1.76148 1.33298,0.88426 2.45528,2.08973 3.30889,3.47551 0.773,1.2549 0.86771,2.98591 2.49717,3.41253 4.2103,-0.19651 8.53726,-0.46537 12.41126,-2.28697 1.4828,-0.0935 1.41398,-2.95782 -0.21601,-2.68315 -2.60995,0.17687 -4.91425,-0.34643 -6.89433,-0.70905 -2.07211,-0.42013 -3.74473,-2.5706 -5.69031,-4.3807 -2.9516,-3.35394 -6.18989,-6.6219 -8.13663,-10.69046 -0.39799,-1.71746 -1.66184,-3.1597 -3.38639,-3.61159 -3.19198,-1.26461 -6.55729,-1.80451 -9.94218,-2.26179 0,0 -4.81607,-0.0816 -6.73348,0.0886 -2.49093,0.19539 -2.83708,0.1971 -4.58247,0.53252 -0.89151,0.23587 -1.62898,0.48057 -2.37525,0.70446 -0.74627,0.22388 -1.61023,0.43554 -2.93887,0.47464 -0.15298,0.005 -0.28065,-0.11581 -0.28478,-0.2688 -0.004,-0.15242 0.11639,-0.2792 0.2688,-0.28333 1.27819,-0.0376 2.06971,-0.23388 2.79599,-0.45188 0.55995,-0.16803 1.0873,-0.35333 1.7426,-0.48141 -1.17226,-0.4475 -1.4538,-0.56122 -3.1544,-1.02871 -0.98541,-0.27087 -2.3973,-0.54944 -3.76706,-0.6979 -0.3506,-0.0221 -0.68582,-0.0302 -1.00836,-0.0247 z m 24.128,12.72994 c 0.24425,-0.0246 0.56147,0.0329 0.95169,0.20487 1.37539,0.40525 3.21684,0.95883 3.75544,2.50007 0.21616,0.76397 -1.90911,0.30914 -3.76706,-0.38842 -1.68607,-0.56101 -1.99848,-2.20981 -0.94007,-2.31652 z" />
      </g>
    </g>
  </g>
</svg>
